HIERARCHY
ROOT hip
{
	OFFSET 0.000000 0.000000 0.000000
	CHANNELS 6 Xposition Yposition Zposition Xrotation Zrotation Yrotation 
	JOINT abdomen
	{
		OFFSET 0.000000 3.422050 0.000000
		CHANNELS 3 Xrotation Zrotation Yrotation 
		JOINT chest
		{
			OFFSET 0.000000 8.486693 -0.684411
			CHANNELS 3 Xrotation Zrotation Yrotation 
			JOINT neck
			{
				OFFSET 0.000000 10.266162 -0.273764
				CHANNELS 3 Xrotation Zrotation Yrotation 
				JOINT head
				{
					OFFSET 0.000000 3.148285 0.000000
					CHANNELS 3 Xrotation Zrotation Yrotation 
					End Site
					{
						OFFSET 0.000000 3.148289 0.000000
					}
				}
			}
			JOINT lCollar
			{
				OFFSET 3.422053 6.707223 -0.821293
				CHANNELS 3 Yrotation Zrotation Xrotation 
				JOINT lShldr
				{
					OFFSET 3.285171 0.000000 0.000000
					CHANNELS 3 Zrotation Yrotation Xrotation 
					JOINT lForeArm
					{
						OFFSET 10.129278 0.000000 0.000000
						CHANNELS 3 Yrotation Zrotation Xrotation 
						JOINT lHand
						{
							OFFSET 8.486692 0.000000 0.000000
							CHANNELS 3 Zrotation Yrotation Xrotation 
							End Site
							{
								OFFSET 4.106464 0.000000 0.000000
							}
						}
					}
				}
			}
			JOINT rCollar
			{
				OFFSET -3.558935 6.707223 -0.821293
				CHANNELS 3 Yrotation Zrotation Xrotation 
				JOINT rShldr
				{
					OFFSET -3.148289 0.000000 0.000000
					CHANNELS 3 Zrotation Yrotation Xrotation 
					JOINT rForeArm
					{
						OFFSET -10.266159 0.000000 0.000000
						CHANNELS 3 Yrotation Zrotation Xrotation 
						JOINT rHand
						{
							OFFSET -8.349810 0.000000 0.000000
							CHANNELS 3 Zrotation Yrotation Xrotation 
							End Site
							{
								OFFSET -4.106464 0.000000 0.000000
							}
						}
					}
				}
			}
		}
	}
	JOINT lThigh
	{
		OFFSET 5.338403 -1.642589 1.368821
		CHANNELS 3 Xrotation Zrotation Yrotation 
		JOINT lShin
		{
			OFFSET -2.053232 -20.121670 0.000000
			CHANNELS 3 Xrotation Zrotation Yrotation 
			JOINT lFoot
			{
				OFFSET 0.000000 -19.300380 -1.231939
				CHANNELS 3 Xrotation Yrotation Zrotation 
				End Site
				{
					OFFSET 0.000000 -2.463878 4.653993
				}
			}
		}
	}
	JOINT rThigh
	{
		OFFSET -5.338403 -1.642589 1.368821
		CHANNELS 3 Xrotation Zrotation Yrotation 
		JOINT rShin
		{
			OFFSET 2.053232 -20.121670 0.000000
			CHANNELS 3 Xrotation Zrotation Yrotation 
			JOINT rFoot
			{
				OFFSET 0.000000 -19.300380 -1.231939
				CHANNELS 3 Xrotation Yrotation Zrotation 
				End Site
				{
					OFFSET 0.000000 -2.463878 4.653993
				}
			}
		}
	}
}
MOTION
Frames: 13
Frame Time: 0.033264
3.979968 13.482107 -23.239929 0.000000 0.000000 0.000000 -0.393152 -0.177203 -0.175991 0.636209 0.843473 0.198780 0.208075 0.012240 0.000022 -17.589142 23.648462 1.345291 -25.349808 -28.399099 -2.330914 -15.430120 -13.611929 -59.291931 -117.938095 -35.295471 -55.758831 -30.027834 -22.992887 -31.004251 42.342972 21.560078 -7.523085 8.589209 34.082195 -57.765171 10.918862 14.441749 -36.234989 13.181177 8.477946 -37.136509 -51.053371 6.104117 -0.001257 145.193680 5.531421 -0.735253 56.309616 8.205308 3.192663 -117.055717 -6.109780 -0.000808 106.199036 -5.531147 0.730154 3.311987 -8.210266 -3.194896 
3.979968 13.482107 -23.239929 0.000000 0.000000 0.000000 -0.393152 -0.177203 -0.175991 0.636209 0.843473 0.198780 0.208075 0.012240 0.000022 -17.644079 23.492123 1.324685 -25.389811 -28.301443 -2.348094 -15.291636 -13.679357 -59.315254 -117.327103 -35.138954 -55.462536 -29.904285 -22.902359 -31.062325 42.342972 21.560076 -7.523085 8.589209 34.082195 -57.765171 10.918862 14.441749 -36.234989 13.181177 8.477946 -37.136509 -51.053371 6.104117 -0.001257 145.193680 5.531421 -0.735253 56.309616 8.205308 3.192663 -117.055717 -6.109780 -0.000808 106.199036 -5.531147 0.730154 3.311987 -8.210266 -3.194896 
3.979968 13.482107 -23.239929 0.000000 0.000000 0.000000 -0.393152 -0.177203 -0.175991 0.636209 0.843473 0.198780 0.208075 0.012240 0.000022 -17.698910 23.335728 1.304262 -25.429756 -28.203779 -2.365185 -15.153070 -13.746734 -59.338737 -116.716637 -34.979431 -55.168076 -29.780891 -22.811695 -31.120134 42.342972 21.560076 -7.523085 8.589209 34.082195 -57.765171 10.918862 14.441749 -36.234989 13.181177 8.477946 -37.136509 -51.053371 6.104117 -0.001257 145.193680 5.531421 -0.735253 56.309616 8.205308 3.192663 -117.055717 -6.109780 -0.000808 106.199036 -5.531147 0.730154 3.311987 -8.210266 -3.194896 
3.979968 13.482107 -23.239929 0.000000 0.000000 0.000000 -0.393152 -0.177203 -0.175991 0.636209 0.843473 0.198780 0.208075 0.012240 0.000022 -17.753626 23.179276 1.284021 -25.469631 -28.106098 -2.382183 -15.014418 -13.814061 -59.362396 -116.106705 -34.816910 -54.875481 -29.657675 -22.720915 -31.177713 42.342972 21.560076 -7.523085 8.589209 34.082195 -57.765171 10.918862 14.441749 -36.234989 13.181177 8.477946 -37.136509 -51.053371 6.104117 -0.001257 145.193680 5.531421 -0.735253 56.309616 8.205308 3.192663 -117.055717 -6.109780 -0.000808 106.199036 -5.531147 0.730154 3.311987 -8.210266 -3.194896 
3.979968 13.482107 -23.239929 0.000000 0.000000 0.000000 -0.393152 -0.177203 -0.175991 0.636209 0.843473 0.198780 0.208075 0.012240 0.000022 -17.808237 23.022772 1.263961 -25.509439 -28.008406 -2.399090 -14.875688 -13.881345 -59.386250 -115.497391 -34.651409 -54.584820 -29.534622 -22.630007 -31.235039 42.342972 21.560076 -7.523085 8.589209 34.082195 -57.765171 10.918862 14.441749 -36.234989 13.181177 8.477946 -37.136509 -51.053371 6.104117 -0.001257 145.193680 5.531421 -0.735253 56.309616 8.205308 3.192663 -117.055717 -6.109780 -0.000808 106.199036 -5.531147 0.730154 3.311987 -8.210266 -3.194896 
3.979968 13.482107 -23.239929 0.000000 0.000000 0.000000 -0.393152 -0.177203 -0.175991 0.636209 0.843473 0.198780 0.208075 0.012240 0.000022 -17.862732 22.866211 1.244081 -25.549179 -27.910692 -2.415904 -14.736876 -13.948576 -59.410271 -114.888725 -34.482941 -54.296150 -29.411747 -22.538984 -31.292126 42.342972 21.560076 -7.523085 8.589209 34.082195 -57.765171 10.918862 14.441749 -36.234989 13.181177 8.477946 -37.136509 -51.053371 6.104117 -0.001257 145.193680 5.531421 -0.735253 56.309616 8.205308 3.192663 -117.055717 -6.109780 -0.000808 106.199036 -5.531147 0.730154 3.311987 -8.210266 -3.194896 
3.979968 13.482107 -23.239929 0.000000 0.000000 0.000000 -0.393152 -0.177203 -0.175991 0.636209 0.843473 0.198780 0.208075 0.012240 0.000022 -17.917114 22.709593 1.224381 -25.588856 -27.812965 -2.432630 -14.597976 -14.015755 -59.434475 -114.280777 -34.311508 -54.009502 -29.289036 -22.447838 -31.348974 42.342972 21.560076 -7.523085 8.589209 34.082195 -57.765171 10.918862 14.441749 -36.234989 13.181177 8.477946 -37.136509 -51.053371 6.104117 -0.001257 145.193680 5.531421 -0.735253 56.309616 8.205308 3.192663 -117.055717 -6.109780 -0.000808 106.199036 -5.531147 0.730154 3.311987 -8.210266 -3.194896 
3.979968 13.482107 -23.239929 0.000000 0.000000 0.000000 -0.393152 -0.177203 -0.175991 0.636209 0.843473 0.198780 0.208075 0.012240 0.000022 -17.971397 22.552929 1.204859 -25.628462 -27.715225 -2.449263 -14.458993 -14.082882 -59.458832 -113.673576 -34.137142 -53.724945 -29.166487 -22.356571 -31.405573 42.342972 21.560076 -7.523085 8.589209 34.082195 -57.765171 10.918862 14.441749 -36.234989 13.181177 8.477946 -37.136509 -51.053371 6.104117 -0.001257 145.193680 5.531421 -0.735253 56.309616 8.205308 3.192663 -117.055717 -6.109780 -0.000808 106.199036 -5.531147 0.730154 3.311987 -8.210266 -3.194896 
3.979968 13.482107 -23.239929 0.000000 0.000000 0.000000 -0.393152 -0.177203 -0.175991 0.636209 0.843473 0.198780 0.208075 0.012240 0.000022 -18.025574 22.396214 1.185517 -25.668003 -27.617470 -2.465806 -14.319931 -14.149960 -59.483387 -113.067184 -33.959850 -53.442524 -29.044113 -22.265186 -31.461931 42.342972 21.560076 -7.523085 8.589209 34.082195 -57.765171 10.918862 14.441749 -36.234989 13.181177 8.477946 -37.136509 -51.053371 6.104117 -0.001257 145.193680 5.531421 -0.735253 56.309616 8.205308 3.192663 -117.055717 -6.109780 -0.000808 106.199036 -5.531147 0.730154 3.311987 -8.210266 -3.194896 
3.979968 13.482107 -23.239929 0.000000 0.000000 0.000000 -0.393152 -0.177203 -0.175991 0.636209 0.843473 0.198780 0.208075 0.012240 0.000022 -18.079638 22.239439 1.166352 -25.707479 -27.519699 -2.482259 -14.180783 -14.216984 -59.508114 -112.461609 -33.779636 -53.162254 -28.921907 -22.173683 -31.518042 42.342972 21.560076 -7.523085 8.589209 34.082195 -57.765171 10.918862 14.441749 -36.234989 13.181177 8.477946 -37.136509 -51.053371 6.104117 -0.001257 145.193680 5.531421 -0.735253 56.309616 8.205308 3.192663 -117.055717 -6.109780 -0.000808 106.199036 -5.531147 0.730154 3.311987 -8.210266 -3.194896 
3.979968 13.482107 -23.239929 0.000000 0.000000 0.000000 -0.393152 -0.177203 -0.175991 0.636209 0.843473 0.198780 0.208075 0.012240 0.000022 -18.133600 22.082617 1.147363 -25.746897 -27.421923 -2.498621 -14.041559 -14.283958 -59.533028 -111.856918 -33.596542 -52.884220 -28.799858 -22.082060 -31.573910 42.342972 21.560076 -7.523085 8.589209 34.082195 -57.765171 10.918862 14.441749 -36.234989 13.181177 8.477946 -37.136509 -51.053371 6.104117 -0.001257 145.193680 5.531421 -0.735253 56.309616 8.205308 3.192663 -117.055717 -6.109780 -0.000808 106.199036 -5.531147 0.730154 3.311987 -8.210266 -3.194896 
3.979968 13.482107 -23.239929 0.000000 0.000000 0.000000 -0.393152 -0.177203 -0.175991 0.636209 0.843473 0.198780 0.208075 0.012240 0.000022 -18.187456 21.925747 1.128552 -25.786240 -27.324123 -2.514894 -13.902249 -14.350877 -59.558117 -111.253166 -33.410587 -52.608475 -28.677984 -21.990320 -31.629534 42.342972 21.560076 -7.523085 8.589209 34.082195 -57.765171 10.918862 14.441749 -36.234989 13.181177 8.477946 -37.136509 -51.053371 6.104117 -0.001257 145.193680 5.531421 -0.735253 56.309616 8.205308 3.192663 -117.055717 -6.109780 -0.000808 106.199036 -5.531147 0.730154 3.311987 -8.210266 -3.194896 
3.979968 13.482107 -23.239929 0.000000 0.000000 0.000000 -0.393152 -0.177203 -0.175991 0.636209 0.843473 0.198780 0.208075 0.012240 0.000022 -18.241213 21.768829 1.109915 -25.825521 -27.226313 -2.531079 -13.762855 -14.417737 -59.583366 -110.650391 -33.221771 -52.335030 -28.556282 -21.898474 -31.684923 42.342972 21.560076 -7.523085 8.589209 34.082195 -57.765171 10.918862 14.441749 -36.234989 13.181177 8.477946 -37.136509 -51.053371 6.104117 -0.001257 145.193680 5.531421 -0.735253 56.309616 8.205308 3.192663 -117.055717 -6.109780 -0.000808 106.199036 -5.531147 0.730154 3.311987 -8.210266 -3.194896 
